<?xml version="1.0" standalone="no"?>
<!DOCTYPE svg PUBLIC "-//W3C//DTD SVG 20010904//EN"
 "http://www.w3.org/TR/2001/REC-SVG-20010904/DTD/svg10.dtd">
<svg version="1.0" xmlns="http://www.w3.org/2000/svg"
 width="260.000000pt" height="260.000000pt" viewBox="0 0 260.000000 260.000000"
 preserveAspectRatio="xMidYMid meet">
<metadata>
Created by potrace 1.14, written by Peter Selinger 2001-2017
</metadata>
<g transform="translate(0.000000,260.000000) scale(0.100000,-0.100000)"
fill="#000000" stroke="none">
<path d="M0 1300 l0 -1300 1300 0 1300 0 0 1300 0 1300 -1300 0 -1300 0 0
-1300z m1554 886 c309 -93 531 -309 632 -616 25 -78 28 -98 28 -245 1 -139 -2
-171 -22 -240 -100 -346 -384 -595 -752 -660 -411 -72 -841 154 -1011 531 -57
128 -74 213 -73 369 1 121 5 152 28 229 88 293 293 509 581 615 116 42 181 51
345 47 133 -3 168 -7 244 -30z"/>
<path d="M1128 2190 c-345 -63 -631 -313 -721 -631 -15 -52 -37 -181 -37 -213
0 -14 22 -16 160 -16 l160 0 0 33 c0 49 27 144 61 212 63 129 201 245 347 293
98 32 263 36 357 8 130 -39 264 -137 339 -250 43 -66 86 -189 86 -250 l0 -46
161 0 162 0 -7 64 c-17 163 -90 344 -189 466 -114 140 -285 253 -462 305 -74
22 -114 28 -230 30 -77 2 -161 0 -187 -5z m84 -130 c9 -19 17 -38 18 -42 1
-17 -35 -38 -64 -38 -32 0 -33 1 -39 51 -8 63 -4 71 36 67 25 -2 36 -11 49
-38z m155 -15 c14 -36 17 -57 10 -62 -5 -3 -15 1 -22 10 -13 18 -45 23 -45 7
0 -5 -9 -10 -20 -10 -11 0 -20 2 -20 5 0 18 53 105 64 105 7 0 22 -25 33 -55z
m122 13 c20 -32 21 -32 27 -10 7 25 34 30 34 6 0 -27 -22 -94 -31 -94 -5 0
-16 12 -26 26 -16 26 -17 26 -25 5 -7 -20 -38 -30 -38 -13 0 13 30 112 34 112
2 0 13 -15 25 -32z m157 -53 c-6 -23 -5 -24 25 -13 22 8 34 7 42 -1 8 -8 3
-14 -21 -23 -31 -12 -33 -15 -27 -50 6 -32 4 -37 -9 -32 -9 3 -19 17 -22 30
-7 27 -14 30 -32 12 -9 -9 -15 -9 -23 -1 -8 8 -4 24 16 57 29 50 62 64 51 21z
m-682 -27 c22 -17 43 -33 45 -35 10 -7 -11 -16 -41 -17 -22 -1 -33 -6 -33 -16
0 -8 -8 -16 -17 -18 -15 -3 -18 4 -18 35 0 21 -3 48 -6 61 -9 33 19 29 70 -10z
m854 -63 c24 -30 19 -59 -14 -74 -13 -6 -24 -18 -24 -27 0 -8 -6 -14 -12 -11
-7 2 -13 16 -13 30 1 20 -2 24 -13 15 -9 -8 -16 -8 -24 0 -9 9 -3 22 27 52 21
22 42 40 46 40 4 0 16 -11 27 -25z m-990 -12 c2 -12 12 -25 23 -28 30 -10 17
-31 -16 -27 -25 3 -27 1 -16 -12 11 -13 10 -17 -3 -22 -9 -4 -18 -5 -19 -3 -1
2 -18 21 -37 42 l-35 38 24 20 c32 26 75 22 79 -8z m-135 -70 c4 -3 2 -12 -3
-18 -7 -9 0 -19 25 -36 19 -13 35 -28 35 -32 0 -18 -32 -17 -56 2 -15 12 -35
19 -45 16 -28 -9 -29 9 -3 43 26 32 35 37 47 25z m1245 -40 c18 -24 15 -50 -8
-73 -40 -40 -100 -19 -100 35 0 59 72 84 108 38z m-1288 -131 c32 4 41 -14 13
-27 -17 -7 -21 -15 -16 -37 7 -35 -13 -38 -29 -3 -9 20 -18 25 -49 25 -30 0
-37 3 -33 15 4 8 15 15 26 15 15 0 18 5 13 20 -11 35 6 44 29 15 15 -18 29
-26 46 -23z m1370 4 c0 -8 -18 -21 -40 -30 -35 -14 -39 -19 -31 -35 10 -18 6
-31 -10 -31 -11 0 -42 60 -35 68 12 11 81 40 99 41 9 1 17 -5 17 -13z m-1488
-144 c-4 -25 -3 -26 10 -8 17 21 40 14 31 -9 -3 -8 0 -15 6 -15 6 0 11 9 11
20 0 12 7 20 16 20 13 0 15 -7 11 -36 -3 -20 -8 -39 -11 -42 -3 -2 -29 2 -58
10 -49 14 -53 17 -51 43 3 42 10 55 26 49 9 -3 12 -15 9 -32z m1538 13 c0 -8
-16 -19 -40 -25 -33 -9 -40 -15 -40 -35 0 -33 -18 -32 -31 2 -14 38 -6 50 43
61 61 14 68 14 68 -3z"/>
<path d="M1160 2020 c0 -5 7 -10 15 -10 8 0 15 5 15 10 0 6 -7 10 -15 10 -8 0
-15 -4 -15 -10z"/>
<path d="M1780 1890 c0 -5 5 -10 10 -10 6 0 10 5 10 10 0 6 -4 10 -10 10 -5 0
-10 -4 -10 -10z"/>
<path d="M780 1889 c0 -5 5 -7 10 -4 6 3 10 8 10 11 0 2 -4 4 -10 4 -5 0 -10
-5 -10 -11z"/>
<path d="M1863 1764 c-3 -8 -1 -20 5 -26 16 -16 42 -2 42 22 0 24 -38 28 -47
4z"/>
<path d="M1102 1846 c-129 -43 -256 -145 -321 -259 -38 -67 -71 -190 -71 -268
0 -209 127 -406 321 -499 222 -105 472 -69 646 93 117 110 171 221 180 372 14
242 -119 450 -351 548 -65 28 -82 31 -201 34 -116 3 -138 1 -203 -21z m218
-35 l0 -40 58 -11 c123 -26 190 -82 200 -166 4 -39 1 -49 -23 -74 -15 -15 -42
-31 -60 -34 -41 -8 -99 14 -114 42 -16 30 -13 80 6 113 20 34 17 38 -31 46
l-36 6 0 -86 0 -86 -32 14 c-32 13 -33 15 -36 84 -2 39 -7 71 -13 71 -5 0 -21
-12 -35 -27 -57 -62 0 -143 143 -202 173 -73 242 -135 263 -237 34 -161 -64
-297 -240 -335 l-50 -11 0 -44 c0 -44 0 -44 -35 -44 -35 0 -35 0 -35 45 0 43
-1 44 -37 50 -121 20 -223 92 -237 168 -14 75 41 143 115 140 52 -2 78 -18 95
-58 21 -50 18 -70 -18 -110 -26 -30 -29 -38 -17 -46 14 -9 77 -29 92 -29 4 0
7 45 7 100 0 57 4 100 10 100 5 0 21 -5 35 -12 24 -11 25 -15 25 -95 0 -81 1
-83 24 -83 13 0 38 13 55 29 36 33 42 81 15 119 -9 13 -77 53 -151 90 -150 74
-211 121 -242 185 -66 136 20 321 169 364 l60 18 0 43 c0 41 0 42 35 42 34 0
35 -1 35 -39z m-142 -23 c-3 -7 -40 -31 -84 -54 -43 -22 -105 -65 -136 -93
-141 -129 -181 -342 -97 -518 42 -88 158 -202 237 -234 62 -24 82 -37 82 -50
0 -15 -49 0 -130 38 -143 69 -248 212 -273 373 -32 207 87 420 287 516 72 35
121 44 114 22z m327 -18 c67 -29 164 -109 203 -169 66 -98 92 -178 92 -281 0
-211 -133 -396 -338 -470 -34 -13 -65 -21 -67 -18 -3 3 12 16 32 30 204 132
233 159 283 263 62 127 61 271 -3 393 -44 83 -161 204 -231 239 -31 15 -56 31
-56 36 0 9 26 2 85 -23z"/>
<path d="M543 1167 c-43 -10 -51 -23 -37 -61 10 -25 22 -19 16 9 -3 18 0 25
12 25 9 0 16 -7 16 -16 0 -8 4 -13 10 -9 5 3 7 12 3 20 -3 9 1 15 10 15 9 0
19 -9 22 -20 11 -34 24 -22 14 12 -5 18 -9 34 -9 35 0 4 -7 3 -57 -10z"/>
<path d="M2057 1130 c-4 -17 -9 -18 -38 -10 -42 12 -62 13 -55 1 6 -8 74 -24
93 -22 11 2 23 51 13 51 -4 0 -10 -9 -13 -20z"/>
<path d="M617 1027 c-12 -19 -22 -23 -48 -19 -22 3 -30 1 -25 -7 4 -6 16 -11
26 -11 16 0 19 -5 14 -32 l-5 -33 18 28 c13 20 26 27 51 27 20 0 31 4 27 10
-3 6 -15 10 -26 10 -16 0 -18 5 -13 25 8 31 1 32 -19 2z"/>
<path d="M2010 1001 c-10 -20 -12 -20 -41 -5 -17 8 -38 14 -47 12 -11 -3 1
-12 32 -26 27 -12 50 -21 51 -20 11 14 26 51 22 55 -3 2 -10 -5 -17 -16z"/>
<path d="M1850 910 c-24 -24 -24 -29 -4 -58 17 -24 62 -30 82 -10 29 29 2 88
-39 88 -10 0 -28 -9 -39 -20z m68 -31 c3 -28 -16 -43 -42 -33 -38 14 -27 67
13 62 20 -2 27 -9 29 -29z"/>
<path d="M706 903 c3 -12 -6 -25 -26 -38 -29 -19 -39 -35 -21 -35 4 0 20 9 35
21 17 14 33 18 47 14 16 -6 20 -4 14 6 -13 23 -38 49 -46 49 -4 0 -5 -8 -3
-17z"/>
<path d="M771 783 c-35 -42 -41 -66 -11 -38 21 19 23 16 20 -22 -1 -13 3 -23
9 -23 6 0 11 9 11 20 0 13 7 20 19 20 26 0 34 28 16 56 -21 32 -28 30 -64 -13z
m54 -4 c10 -15 -1 -23 -20 -15 -9 3 -13 10 -10 16 8 13 22 13 30 -1z"/>
<path d="M1736 797 c-19 -14 -18 -16 14 -55 18 -23 37 -39 42 -36 6 4 5 11 -1
17 -20 20 -11 29 20 22 22 -5 29 -4 25 4 -4 6 -13 11 -21 11 -7 0 -15 10 -17
23 -4 26 -35 34 -62 14z m44 -17 c0 -19 -20 -27 -33 -13 -8 7 11 33 24 33 5 0
9 -9 9 -20z"/>
<path d="M1647 733 c-3 -5 -8 -23 -12 -42 l-7 -34 -18 24 c-31 40 -33 14 -3
-33 28 -43 28 -43 31 -15 3 26 6 27 40 22 l37 -6 -34 16 c-30 13 -33 18 -27
45 5 29 2 39 -7 23z"/>
<path d="M908 689 c-21 -17 -38 -36 -38 -42 0 -8 3 -8 12 1 14 14 48 -2 48
-23 0 -8 5 -15 10 -15 6 0 10 8 10 18 0 9 3 34 6 55 4 20 3 37 -2 37 -5 -1
-26 -14 -46 -31z m32 -19 c0 -5 -4 -10 -10 -10 -5 0 -10 5 -10 10 0 6 5 10 10
10 6 0 10 -4 10 -10z"/>
<path d="M1510 646 c11 -31 2 -33 -41 -10 -29 15 -30 14 -25 -3 3 -10 8 -30
12 -45 3 -16 11 -28 16 -28 6 0 7 11 4 25 -7 28 -1 30 34 10 14 -8 28 -14 31
-15 12 0 -17 84 -30 88 -8 3 -9 -3 -1 -22z"/>
<path d="M1140 638 c0 -7 -3 -29 -6 -49 -6 -33 -4 -37 19 -43 42 -10 56 1 55
47 0 23 -5 45 -12 49 -18 12 -56 9 -56 -4z m50 -18 c0 -5 -7 -10 -15 -10 -8 0
-15 5 -15 10 0 6 7 10 15 10 8 0 15 -4 15 -10z m0 -45 c0 -8 -9 -15 -20 -15
-11 0 -20 7 -20 15 0 8 9 15 20 15 11 0 20 -7 20 -15z"/>
<path d="M1305 589 c-9 -28 -14 -53 -11 -56 3 -3 8 2 12 11 7 19 50 22 57 4 2
-7 7 -10 11 -7 8 7 -34 99 -45 99 -4 0 -15 -23 -24 -51z m35 -4 c0 -8 -4 -15
-10 -15 -5 0 -10 7 -10 15 0 8 5 15 10 15 6 0 10 -7 10 -15z"/>
</g>
</svg>
